<svg xmlns="http://www.w3.org/2000/svg" xmlns:xlink="http://www.w3.org/1999/xlink" version="1.1" x="0px" y="0px" viewBox="0 0 70 87.5" style="enable-background:new 0 0 70 70;" xml:space="preserve"><g><path d="M59.5751991,11.4019423c-0.9000244-0.8898926-2.5200195-0.6799316-7.5599976,3.2200928   c-3.4899902,2.7000723-7.8200073,6.5999746-12.2000122,10.9799795c-3.197937,3.1895752-6.168396,6.3961182-8.588501,9.2558613   c0.5967407,0.3349609,1.1734009,0.7410889,1.6815796,1.2476807c0.3603516,0.3613281,0.6357422,0.671875,0.8994026,0.9960938   c0.1171989,0.1357422,0.2607536,0.3271484,0.4013786,0.5185547c0.2138672,0.2939453,0.4150391,0.5947266,0.6171875,0.9082031   c0.3276978,0.5507813,0.5842285,1.0863037,0.8120728,1.621582c1.0975952-0.9193115,2.2446899-1.9189453,3.4368896-2.9980469   c2.0199585-1.829834,4.1599731-3.8498535,6.2999878-5.9899921c4.3699951-4.369873,8.2700195-8.7099609,10.9799805-12.2099609   C60.245182,13.911952,60.455204,12.292079,59.5751991,11.4019423z"/><path d="M31.495182,53.1519432c-4.1300049,4.1201172-19.7299805,5.8000488-20.4000244,5.8701172   c-0.0299683,0-0.0699463,0.0100098-0.0999756,0.0100098c-0.3800049,0-0.7299805-0.2199707-0.9000244-0.5700684   c-0.1799927-0.3800049-0.1099854-0.8399658,0.1900024-1.1398926c3.7600098-3.7700195,5-8.7401123,5.3800049-12.2401123   c0.3099976-2.9100342,1.7800283-5.5999756,4.0400381-7.3900146c2.1099854-1.6799316,4.7099609-2.4199219,7.3299561-2.1099854   c1.1000366,0.1300049,2.0800171,0.4100342,2.9000244,0.8299561c0.5999756,0.2900391,1.1199951,0.6700439,1.5599976,1.1101074   c0.0200195,0.0200195,0.039978,0.0400391,0.0599976,0.0599365c0.25,0.25,0.4799805,0.5100098,0.7000122,0.7800293   c0.1199951,0.1400146,0.2299805,0.289917,0.3399658,0.4400635c0.1900024,0.2600098,0.3699951,0.5299072,0.5500488,0.8099365   c0.3499756,0.5899658,0.6499634,1.2199707,0.8800049,1.8599854C35.495182,45.4019432,34.6452065,50.0020409,31.495182,53.1519432z"/></g><text x="0" y="85" fill="#000000" font-size="5px" font-weight="bold" font-family="'Helvetica Neue', Helvetica, Arial-Unicode, Arial, Sans-serif">Created by DinosoftLab</text><text x="0" y="90" fill="#000000" font-size="5px" font-weight="bold" font-family="'Helvetica Neue', Helvetica, Arial-Unicode, Arial, Sans-serif">from the Noun Project</text></svg>