<svg height='100px' width='100px'  fill="#000000" xmlns="http://www.w3.org/2000/svg" xmlns:xlink="http://www.w3.org/1999/xlink" version="1.1" x="0px" y="0px" viewBox="0 0 100 100" style="enable-background:new 0 0 100 100;" xml:space="preserve"><path d="M88.3,2.5h-1H12.7h-1c-5.1,0-9.2,4.1-9.2,9.2v1v74.6v1c0,4.4,3.2,8.2,7.4,9c0.6,0.1,1.2,0.2,1.9,0.2h1h74.6h1  c0.6,0,1.3-0.1,1.9-0.2c4.2-0.9,7.4-4.6,7.4-9v-1V53v-2V12.7v-1C97.5,6.6,93.4,2.5,88.3,2.5z M87.3,5.5c4,0,7.2,3.2,7.2,7.2v36.1  L91.9,51l-2.8-2.4L86.3,51l-2.8-2.4L80.7,51l-2.8-2.4L75.1,51l-2.8-2.4L69.5,51l-2.8-2.4L63.8,51l-0.5-0.4c1.1-2.8,1.2-5.9,0.4-8.9  c-1-3.7-3.4-6.8-6.7-8.8c-3.3-1.9-7.2-2.4-11-1.4c-3.7,1-6.8,3.4-8.8,6.7l-8.2,14.2H5.5l0,0V12.7c0-4,3.2-7.2,7.2-7.2H87.3z   M45.6,75.6c0,0,0,0.1-0.1,0.1c-0.3,0.7-0.1,1.5,0.6,1.9c0.2,0.1,0.5,0.2,0.8,0.2c0.5,0,1-0.3,1.3-0.7l1.2-2.1l3.1,3.1l3.7-3.6  l3.7,3.6l3.7-3.6l3.7,3.6l3.7-3.6l3.7,3.6l3.7-3.6l3.7,3.6l3.7-3.6l3.7,3.6l3.7-3.6l1.7,1.7v4.3H38.9h-4.4  c-5.8,0-10.5-4.7-10.5-10.5c0-4.8,3.9-8.7,8.7-8.7c4,0,7.2,3.2,7.2,7.2c0,3.2-2.6,5.9-5.9,5.9c-2.6,0-4.8-2.1-4.8-4.8  c0-2.1,1.7-3.8,3.8-3.8c1.7,0,3,1.4,3,3c0,0.8,0.7,1.5,1.5,1.5s1.5-0.7,1.5-1.5c0-3.3-2.7-6-6-6c-3.8,0-6.8,3.1-6.8,6.8  c0,4.3,3.5,7.8,7.8,7.8c4.9,0,8.9-4,8.9-8.9c0-5.6-4.6-10.2-10.2-10.2c-0.3,0-0.7,0-1,0c-0.9,0.1-1.9,0.3-2.7,0.6l10.9-19  c1.5-2.6,4-4.5,7-5.3c3-0.8,6-0.4,8.7,1.1c2.7,1.5,4.5,4,5.3,7c0.8,3,0.4,6-1.1,8.7L45.6,75.6z M87.3,94.5H12.7  c-4,0-7.2-3.2-7.2-7.2V55.4l0,0h21.9l-5.3,9.2c-0.1,0.2-0.2,0.4-0.2,0.6c-0.6,1.4-1,3-1,4.7c0,7.5,6.1,13.5,13.5,13.5h60v3.9  C94.5,91.2,91.2,94.5,87.3,94.5z M92.8,70.2l-3.7,3.6l-3.7-3.6l-3.7,3.6l-3.7-3.6l-3.7,3.6l-3.7-3.6l-3.7,3.6l-3.7-3.6l-3.7,3.6  l-3.7-3.6l-3.7,3.6L51,72.3l11-18.9l1.9,1.6l2.8-2.4l2.8,2.4l2.8-2.4l2.8,2.4l2.8-2.4l2.8,2.4l2.8-2.4l2.8,2.4l2.8-2.4l2.8,2.4  l2.6-2.2v19.1L92.8,70.2z M79.3,60.5c0,0.8-0.7,1.5-1.5,1.5c-0.8,0-1.5-0.7-1.5-1.5c0-0.8,0.7-1.5,1.5-1.5  C78.6,59,79.3,59.7,79.3,60.5z M92.4,59.9c0,0.8-0.7,1.5-1.5,1.5c-0.8,0-1.5-0.7-1.5-1.5c0-0.8,0.7-1.5,1.5-1.5  C91.8,58.4,92.4,59,92.4,59.9z M71.6,66.3c0,0.8-0.7,1.5-1.5,1.5c-0.8,0-1.5-0.7-1.5-1.5c0-0.8,0.7-1.5,1.5-1.5  C70.9,64.8,71.6,65.5,71.6,66.3z M66.1,59.9c0,0.8-0.7,1.5-1.5,1.5c-0.8,0-1.5-0.7-1.5-1.5c0-0.8,0.7-1.5,1.5-1.5  C65.4,58.4,66.1,59,66.1,59.9z M85.7,66.3c0,0.8-0.7,1.5-1.5,1.5c-0.8,0-1.5-0.7-1.5-1.5c0-0.8,0.7-1.5,1.5-1.5  C85,64.8,85.7,65.5,85.7,66.3z"></path></svg>