<svg xmlns="http://www.w3.org/2000/svg" data-name="Layer 1" viewBox="0 0 100 125" x="0px" y="0px"><title>garden1</title><path d="M9,10.25,9.21,28a10.85,10.85,0,0,0,6.08,9.15L25.9,42.73c6.14,8.28,5.88,8.38,6.4,8.4a.59.59,0,0,0,.47-.19l.29-.33L65.22,90.7l0,0c2.93,2.88,7.42-1.53,4.76-4.5L38.62,44.38l.47-.53L86.21,69.43a3.17,3.17,0,0,0,3.92-5l-.08-.06L45,37.19l.59-.66a.55.55,0,0,0,.13-.49.56.56,0,0,0-.31-.42l-9.37-4.68-.08,0L9.85,9.46a.59.59,0,0,0-.93.63ZM69.13,87c1.69,1.89-1.16,4.73-3,3L33.85,49.73l4-4.46ZM89.4,65.37a2,2,0,0,1-2.53,3.1l-.07,0L39.89,43l4.36-4.88Zm-57-15.74-5.33-7.31,9.2-9.72a.57.57,0,0,0,.12-.21l7.88,3.93ZM35,31.56,20.11,30.7a5.75,5.75,0,0,1-4.76-4.24L10.63,11.61ZM14.23,26.78A6.94,6.94,0,0,0,20,31.86l14.55.84-8.37,8.85-10.36-5.4A9.68,9.68,0,0,1,10.38,28l-.19-13.93Z"/><path d="M35,37.19a2.6,2.6,0,0,0-1.89.88,2.72,2.72,0,0,0,.27,3.86,2.81,2.81,0,0,0,1.88.73h.1a2.64,2.64,0,0,0,1.89-.88,2.69,2.69,0,0,0,.67-2,2.82,2.82,0,0,0-.94-1.89A2.79,2.79,0,0,0,35,37.19ZM36.33,41a1.47,1.47,0,0,1-1.06.49,1.66,1.66,0,0,1-1.17-.42,1.6,1.6,0,0,1-.18-2.23A1.53,1.53,0,0,1,35,38.35h.06a1.62,1.62,0,0,1,1.1.43,1.66,1.66,0,0,1,.56,1.11A1.5,1.5,0,0,1,36.33,41Z"/><text x="0" y="115" fill="#000000" font-size="5px" font-weight="bold" font-family="'Helvetica Neue', Helvetica, Arial-Unicode, Arial, Sans-serif">Created by prasong tadoungsorn</text><text x="0" y="120" fill="#000000" font-size="5px" font-weight="bold" font-family="'Helvetica Neue', Helvetica, Arial-Unicode, Arial, Sans-serif">from the Noun Project</text></svg>